<?xml version="1.0" encoding="UTF-8" standalone="no"?>
<!DOCTYPE svg PUBLIC "-//W3C//DTD SVG 1.1//EN" "http://www.w3.org/Graphics/SVG/1.1/DTD/svg11.dtd">
<svg width="100%" height="100%" viewBox="0 0 2199 484" version="1.1" xmlns="http://www.w3.org/2000/svg" xmlns:xlink="http://www.w3.org/1999/xlink" xml:space="preserve" xmlns:serif="http://www.serif.com/" style="fill-rule:evenodd;clip-rule:evenodd;stroke-linejoin:round;stroke-miterlimit:1.41421;">
    <g transform="matrix(1,0,0,1,0,-4.06249)">
        <g transform="matrix(4.16667,0,0,4.16667,0,0)">
            <path d="M271.336,61.38L287.337,61.38L287.337,15.485L318.803,15.485L318.803,1.062L239.484,1.062L239.484,15.485L271.336,15.485L271.336,61.38Z" style="fill:rgb(0,84,166);fill-rule:nonzero;"/>
        </g>
        <g transform="matrix(4.16667,0,0,4.16667,0,0)">
            <rect x="421.659" y="1.062" width="14.532" height="60.318" style="fill:rgb(0,84,166);fill-rule:nonzero;"/>
        </g>
        <g transform="matrix(4.16667,0,0,4.16667,0,0)">
            <path d="M521.854,29.507C518.193,25.829 513.757,23.963 508.672,23.963L469.237,23.963C468.122,23.963 467.132,23.531 466.3,22.68C465.465,21.834 465.042,20.824 465.042,19.682C465.042,18.473 465.457,17.45 466.274,16.638C467.078,15.808 468.05,15.398 469.237,15.398L523.427,15.398L523.427,0.975L469.237,0.975C464.143,0.975 459.699,2.83 456.031,6.488C452.371,10.145 450.516,14.583 450.516,19.682C450.516,24.775 452.371,29.214 456.031,32.871C459.695,36.528 464.137,38.384 469.237,38.384L508.672,38.384C509.847,38.384 510.848,38.796 511.641,39.608C512.452,40.426 512.865,41.426 512.865,42.58C512.865,43.745 512.451,44.745 511.633,45.55C510.852,46.364 509.878,46.766 508.672,46.766L450.779,46.766L450.779,61.38L508.672,61.38C513.77,61.38 518.206,59.527 521.857,55.873C525.519,52.223 527.373,47.797 527.373,42.72C527.373,37.652 525.519,33.206 521.854,29.507Z" style="fill:rgb(0,84,166);fill-rule:nonzero;"/>
        </g>
        <g transform="matrix(4.16667,0,0,4.16667,0,0)">
            <path d="M90.53,6.586C86.858,10.246 84.997,14.681 84.997,19.77L84.997,42.678C84.997,47.753 86.858,52.186 90.528,55.857C94.19,59.522 98.626,61.38 103.71,61.38L151.551,61.38L151.551,46.949L103.71,46.949C102.626,46.949 101.643,46.524 100.787,45.686C99.944,44.813 99.541,43.853 99.541,42.741L99.541,37.224L151.551,37.224L151.551,24.852L99.541,24.852L99.541,19.708C99.541,18.642 99.96,17.695 100.827,16.804C101.701,15.926 102.669,15.485 103.71,15.485L151.551,15.485L151.551,1.062L103.71,1.062C98.618,1.062 94.182,2.921 90.53,6.586Z" style="fill:rgb(0,84,166);fill-rule:nonzero;"/>
        </g>
        <g transform="matrix(4.16667,0,0,4.16667,0,0)">
            <path d="M55.432,0.975L0.255,0.975L0.255,15.398L55.432,15.398C56.485,15.398 57.425,15.829 58.306,16.711C59.19,17.602 59.618,18.553 59.618,19.62L59.618,42.653C59.618,43.828 59.204,44.833 58.39,45.638C57.583,46.46 56.614,46.864 55.432,46.864L14.782,46.864L14.782,24.063L0.255,24.063L0.255,61.285L55.432,61.285C60.515,61.285 64.956,59.429 68.633,55.772C72.29,52.107 74.145,47.668 74.145,42.58L74.145,19.682C74.145,14.589 72.29,10.15 68.632,6.488C64.958,2.83 60.516,0.975 55.432,0.975Z" style="fill:rgb(0,84,166);fill-rule:nonzero;"/>
        </g>
        <g transform="matrix(4.16667,0,0,4.16667,0,0)">
            <path d="M402.735,30.722L402.961,30.332C404.941,26.945 405.944,23.363 405.944,19.682C405.944,14.589 404.087,10.148 400.43,6.488C396.773,2.83 392.328,0.975 387.228,0.975L327.567,0.975L327.567,15.398L387.702,15.398C388.86,15.398 389.857,15.819 390.666,16.645C391.478,17.475 391.888,18.496 391.888,19.682C391.888,20.834 391.47,21.814 390.612,22.681C389.728,23.577 388.684,24.048 387.592,24.048L327.567,23.95L327.567,61.285L342.099,61.285L342.099,38.384L388.973,38.384C389.827,38.384 390.597,38.832 391.329,39.753C392.069,40.701 392.443,41.652 392.443,42.58L392.443,61.285L406.955,61.285L406.955,42.58C406.955,38.261 405.629,34.39 403.013,31.074L402.735,30.722Z" style="fill:rgb(0,84,166);fill-rule:nonzero;"/>
        </g>
        <g transform="matrix(4.16667,0,0,4.16667,0,0)">
            <path d="M170.119,6.586C166.459,10.236 164.603,14.671 164.603,19.77L164.603,42.678C164.603,47.764 166.459,52.197 170.118,55.857C173.779,59.522 178.219,61.38 183.315,61.38L231.143,61.38L231.143,46.949L183.315,46.949C182.191,46.949 181.204,46.521 180.382,45.673C179.531,44.836 179.113,43.872 179.113,42.741L179.113,19.708C179.113,18.656 179.538,17.705 180.417,16.804C181.304,15.916 182.25,15.485 183.315,15.485L231.143,15.485L231.143,1.062L183.315,1.062C178.211,1.062 173.773,2.921 170.119,6.586Z" style="fill:rgb(0,84,166);fill-rule:nonzero;"/>
        </g>
        <g transform="matrix(4.16667,0,0,4.16667,0,0)">
            <path d="M3.444,101.293C3.444,102.283 3.536,103.143 3.724,103.877C3.909,104.613 4.258,105.221 4.765,105.702C5.272,106.181 5.966,106.543 6.847,106.783C7.728,107.024 8.875,107.143 10.289,107.143L15.895,107.143C17.178,107.143 18.251,107.009 19.118,106.744C19.987,106.476 20.681,106.095 21.2,105.6C21.722,105.107 22.095,104.492 22.323,103.758C22.549,103.023 22.661,102.188 22.661,101.254L22.661,97.368C22.661,96.139 22.489,95.151 22.142,94.402C21.795,93.656 21.301,93.08 20.661,92.679C20.019,92.28 19.232,92.012 18.299,91.879C17.364,91.745 16.323,91.678 15.176,91.678L10.531,91.678C9.356,91.678 8.322,91.751 7.427,91.898C6.533,92.045 5.791,92.319 5.205,92.72C4.618,93.121 4.177,93.688 3.884,94.422C3.59,95.157 3.444,96.113 3.444,97.288L3.444,101.293ZM26.106,109.627L22.903,109.627L22.903,106.382L22.823,106.382C22.315,107.639 21.407,108.545 20.1,109.107C18.792,109.668 17.23,109.949 15.415,109.949L10.611,109.949C9.035,109.949 7.601,109.828 6.306,109.587C5.011,109.347 3.896,108.913 2.963,108.286C2.028,107.658 1.301,106.783 0.782,105.661C0.26,104.539 0,103.097 0,101.334L0,97.728C0,96.099 0.174,94.723 0.521,93.602C0.868,92.478 1.461,91.564 2.303,90.856C3.144,90.149 4.25,89.642 5.625,89.334C7,89.027 8.729,88.874 10.811,88.874L16.055,88.874C18.032,88.874 19.519,89.114 20.521,89.595C21.521,90.076 22.209,90.85 22.582,91.918L22.661,91.918L22.661,80.619L26.106,80.619L26.106,109.627Z" style="fill:rgb(0,84,166);fill-rule:nonzero;"/>
        </g>
        <g transform="matrix(4.16667,0,0,4.16667,0,0)">
            <path d="M54.372,95.845C54.372,95.338 54.258,94.829 54.032,94.323C53.806,93.815 53.424,93.367 52.891,92.981C52.357,92.593 51.622,92.28 50.689,92.038C49.753,91.799 48.594,91.678 47.205,91.678L42.16,91.678C40.8,91.678 39.679,91.751 38.797,91.898C37.916,92.045 37.215,92.319 36.696,92.72C36.174,93.121 35.801,93.681 35.575,94.402C35.347,95.123 35.193,96.059 35.114,97.206L54.372,97.206L54.372,95.845ZM31.669,97.127C31.669,95.285 31.964,93.815 32.551,92.72C33.138,91.624 33.905,90.789 34.853,90.216C35.801,89.642 36.868,89.273 38.056,89.114C39.244,88.954 40.453,88.874 41.679,88.874L47.205,88.874C48.753,88.874 50.174,88.993 51.469,89.234C52.764,89.474 53.879,89.922 54.812,90.576C55.747,91.231 56.48,92.133 57.015,93.281C57.549,94.43 57.816,95.912 57.816,97.728L57.816,100.012L35.114,100.012L35.114,101.293C35.114,102.469 35.26,103.431 35.554,104.179C35.847,104.927 36.321,105.521 36.976,105.961C37.629,106.403 38.483,106.709 39.538,106.884C40.593,107.057 41.867,107.143 43.362,107.143L48.087,107.143C49.154,107.143 50.075,107.097 50.849,107.003C51.622,106.91 52.264,106.729 52.771,106.461C53.277,106.196 53.657,105.821 53.911,105.34C54.165,104.859 54.319,104.233 54.372,103.457L57.816,103.457L57.816,103.858C57.816,105.033 57.582,106.008 57.114,106.783C56.648,107.557 55.967,108.178 55.073,108.646C54.179,109.114 53.097,109.447 51.829,109.647C50.561,109.848 49.128,109.949 47.526,109.949L41.28,109.949C40.159,109.949 39.024,109.867 37.877,109.707C36.728,109.548 35.694,109.174 34.773,108.586C33.852,107.999 33.105,107.158 32.531,106.062C31.956,104.966 31.669,103.472 31.669,101.574L31.669,97.127Z" style="fill:rgb(0,84,166);fill-rule:nonzero;"/>
        </g>
        <g transform="matrix(4.16667,0,0,4.16667,0,0)">
            <path d="M65.063,91.999L60.579,91.999L60.579,89.193L65.063,89.193L65.063,84.347L68.507,84.347L68.507,89.193L82.16,89.193L82.16,91.999L68.507,91.999L68.507,102.175C68.507,103.137 68.594,103.931 68.766,104.559C68.94,105.186 69.227,105.695 69.628,106.081C70.029,106.47 70.555,106.744 71.21,106.903C71.863,107.063 72.657,107.143 73.592,107.143L74.672,107.143C75.821,107.143 76.741,107.07 77.435,106.923C78.129,106.776 78.663,106.509 79.036,106.122C79.41,105.734 79.658,105.2 79.778,104.519C79.898,103.838 79.957,102.963 79.957,101.895L79.957,100.372L82.761,100.372L82.761,102.616C82.761,103.631 82.701,104.586 82.58,105.48C82.459,106.377 82.141,107.158 81.619,107.824C81.099,108.493 80.319,109.013 79.278,109.388C78.237,109.761 76.78,109.949 74.913,109.949L73.032,109.949C71.43,109.949 70.109,109.767 69.068,109.408C68.027,109.047 67.212,108.566 66.625,107.965C66.037,107.363 65.63,106.677 65.404,105.901C65.177,105.126 65.063,104.326 65.063,103.497L65.063,91.999Z" style="fill:rgb(0,84,166);fill-rule:nonzero;"/>
        </g>
        <g transform="matrix(4.16667,0,0,4.16667,0,0)">
            <path d="M108.745,95.845C108.745,95.338 108.631,94.829 108.405,94.323C108.179,93.815 107.797,93.367 107.264,92.981C106.73,92.593 105.995,92.28 105.062,92.038C104.127,91.799 102.967,91.678 101.578,91.678L96.533,91.678C95.172,91.678 94.051,91.751 93.17,91.898C92.288,92.045 91.588,92.319 91.068,92.72C90.547,93.121 90.174,93.681 89.947,94.402C89.719,95.123 89.566,96.059 89.486,97.206L108.745,97.206L108.745,95.845ZM86.042,97.127C86.042,95.285 86.337,93.815 86.924,92.72C87.51,91.624 88.277,90.789 89.225,90.216C90.174,89.642 91.241,89.273 92.429,89.114C93.616,88.954 94.825,88.874 96.052,88.874L101.578,88.874C103.126,88.874 104.547,88.993 105.842,89.234C107.138,89.474 108.252,89.922 109.185,90.576C110.12,91.231 110.854,92.133 111.388,93.281C111.922,94.43 112.19,95.912 112.19,97.728L112.19,100.012L89.486,100.012L89.486,101.293C89.486,102.469 89.633,103.431 89.926,104.179C90.22,104.927 90.694,105.521 91.349,105.961C92.002,106.403 92.855,106.709 93.911,106.884C94.965,107.057 96.239,107.143 97.735,107.143L102.46,107.143C103.527,107.143 104.448,107.097 105.222,107.003C105.995,106.91 106.637,106.729 107.144,106.461C107.651,106.196 108.03,105.821 108.285,105.34C108.538,104.859 108.692,104.233 108.745,103.457L112.19,103.457L112.19,103.858C112.19,105.033 111.955,106.008 111.488,106.783C111.021,107.557 110.341,108.178 109.446,108.646C108.552,109.114 107.47,109.447 106.202,109.647C104.935,109.848 103.501,109.949 101.9,109.949L95.653,109.949C94.532,109.949 93.396,109.867 92.249,109.707C91.101,109.548 90.066,109.174 89.146,108.586C88.225,107.999 87.477,107.158 86.904,106.062C86.329,104.966 86.042,103.472 86.042,101.574L86.042,97.127Z" style="fill:rgb(0,84,166);fill-rule:nonzero;"/>
        </g>
        <g transform="matrix(4.16667,0,0,4.16667,0,0)">
            <path d="M116.673,97.127C116.673,95.285 116.974,93.815 117.574,92.72C118.175,91.624 118.955,90.789 119.917,90.216C120.878,89.642 121.973,89.273 123.2,89.114C124.428,88.954 125.67,88.874 126.924,88.874L132.69,88.874C135.893,88.874 138.182,89.489 139.557,90.716C140.93,91.946 141.618,93.641 141.618,95.805L141.618,96.365L138.415,96.365L138.415,95.884C138.415,95.03 138.281,94.329 138.014,93.781C137.747,93.235 137.367,92.806 136.873,92.5C136.38,92.193 135.779,91.978 135.072,91.859C134.365,91.738 133.584,91.678 132.729,91.678L126.403,91.678C125.603,91.678 124.822,91.732 124.061,91.838C123.301,91.946 122.626,92.185 122.04,92.56C121.451,92.933 120.984,93.488 120.637,94.223C120.29,94.956 120.117,95.966 120.117,97.247L120.117,101.535C120.117,102.683 120.284,103.618 120.618,104.339C120.951,105.059 121.426,105.628 122.04,106.041C122.652,106.456 123.387,106.744 124.241,106.903C125.095,107.063 126.043,107.143 127.084,107.143L132.89,107.143C133.69,107.143 134.444,107.078 135.151,106.942C135.859,106.81 136.486,106.576 137.033,106.241C137.58,105.909 138.008,105.467 138.315,104.919C138.621,104.373 138.775,103.685 138.775,102.857L138.775,102.175L141.978,102.175L141.978,102.777C141.978,104.058 141.811,105.154 141.477,106.062C141.143,106.97 140.618,107.712 139.896,108.286C139.176,108.86 138.248,109.28 137.113,109.548C135.979,109.813 134.611,109.949 133.009,109.949L125.243,109.949C124.467,109.949 123.587,109.867 122.6,109.707C121.611,109.548 120.678,109.181 119.796,108.605C118.916,108.031 118.175,107.197 117.574,106.101C116.974,105.007 116.673,103.537 116.673,101.694L116.673,97.127Z" style="fill:rgb(0,84,166);fill-rule:nonzero;"/>
        </g>
        <g transform="matrix(4.16667,0,0,4.16667,0,0)">
            <path d="M149.105,91.999L144.622,91.999L144.622,89.193L149.105,89.193L149.105,84.347L152.55,84.347L152.55,89.193L166.202,89.193L166.202,91.999L152.55,91.999L152.55,102.175C152.55,103.137 152.636,103.931 152.808,104.559C152.983,105.186 153.27,105.695 153.67,106.081C154.071,106.47 154.597,106.744 155.252,106.903C155.906,107.063 156.699,107.143 157.634,107.143L158.715,107.143C159.863,107.143 160.784,107.07 161.477,106.923C162.172,106.776 162.706,106.509 163.079,106.122C163.452,105.734 163.7,105.2 163.82,104.519C163.941,103.838 163.999,102.963 163.999,101.895L163.999,100.372L166.804,100.372L166.804,102.616C166.804,103.631 166.743,104.586 166.622,105.48C166.502,106.377 166.182,107.158 165.661,107.824C165.141,108.493 164.361,109.013 163.32,109.388C162.279,109.761 160.823,109.949 158.955,109.949L157.074,109.949C155.472,109.949 154.151,109.767 153.11,109.408C152.069,109.047 151.254,108.566 150.668,107.965C150.08,107.363 149.672,106.677 149.446,105.901C149.22,105.126 149.105,104.326 149.105,103.497L149.105,91.999Z" style="fill:rgb(0,84,166);fill-rule:nonzero;"/>
        </g>
        <g transform="matrix(4.16667,0,0,4.16667,0,0)">
            <path d="M171.487,89.193L174.93,89.193L174.93,109.627L171.487,109.627L171.487,89.193ZM171.487,80.619L174.93,80.619L174.93,84.386L171.487,84.386L171.487,80.619Z" style="fill:rgb(0,84,166);fill-rule:nonzero;"/>
        </g>
        <g transform="matrix(4.16667,0,0,4.16667,0,0)">
            <path d="M181.896,89.193L185.099,89.193L185.099,92.72L185.179,92.72C185.498,91.918 185.906,91.27 186.399,90.777C186.893,90.283 187.481,89.894 188.162,89.614C188.843,89.334 189.623,89.141 190.503,89.034C191.385,88.928 192.359,88.874 193.428,88.874L198.592,88.874C200.194,88.874 201.541,89.06 202.636,89.435C203.731,89.808 204.604,90.315 205.259,90.957C205.912,91.598 206.38,92.338 206.66,93.181C206.94,94.022 207.08,94.896 207.08,95.805L207.08,109.627L203.636,109.627L203.636,96.646C203.636,95.899 203.556,95.218 203.397,94.603C203.237,93.988 202.897,93.468 202.375,93.041C201.855,92.614 201.101,92.28 200.114,92.038C199.125,91.799 197.791,91.678 196.109,91.678L195.228,91.678C193.227,91.678 191.585,91.786 190.305,91.999C189.022,92.213 188.015,92.56 187.281,93.041C186.546,93.52 186.039,94.169 185.759,94.983C185.479,95.798 185.339,96.807 185.339,98.009L185.339,109.627L181.896,109.627L181.896,89.193Z" style="fill:rgb(0,84,166);fill-rule:nonzero;"/>
        </g>
        <g transform="matrix(4.16667,0,0,4.16667,0,0)">
            <path d="M235.306,97.929C235.334,96.967 235.252,96.106 235.067,95.345C234.879,94.583 234.552,93.928 234.086,93.38C233.618,92.834 232.985,92.413 232.183,92.118C231.383,91.825 230.383,91.678 229.18,91.678L222.173,91.678C221.293,91.678 220.485,91.745 219.752,91.879C219.017,92.012 218.377,92.245 217.83,92.579C217.283,92.914 216.855,93.361 216.549,93.921C216.242,94.482 216.088,95.179 216.088,96.005L216.088,99.771C216.088,100.947 216.194,101.929 216.409,102.717C216.621,103.504 216.961,104.132 217.429,104.6C217.897,105.067 218.504,105.4 219.25,105.6C219.998,105.801 220.893,105.901 221.934,105.901L228.581,105.901C231.036,105.901 232.771,105.428 233.786,104.479C234.8,103.532 235.306,102.175 235.306,100.413L235.306,97.929ZM238.75,109.587C238.75,111.136 238.442,112.392 237.83,113.354C237.216,114.315 236.442,115.07 235.507,115.617C234.573,116.165 233.532,116.532 232.383,116.72C231.237,116.905 230.129,117 229.061,117L221.293,117C219.718,117 218.41,116.806 217.368,116.419C216.327,116.032 215.508,115.537 214.907,114.936C214.306,114.336 213.886,113.674 213.646,112.954C213.405,112.231 213.286,111.551 213.286,110.909L213.286,110.229L216.489,110.229L216.489,110.79C216.489,111.457 216.649,112.011 216.97,112.453C217.289,112.893 217.716,113.24 218.25,113.495C218.785,113.747 219.412,113.928 220.132,114.034C220.852,114.142 221.613,114.196 222.414,114.196L225.777,114.196C227.486,114.196 228.941,114.162 230.141,114.095C231.342,114.028 232.325,113.814 233.084,113.454C233.845,113.094 234.405,112.539 234.767,111.791C235.127,111.042 235.306,109.975 235.306,108.586L235.306,105.54L235.226,105.54C235.039,106.021 234.8,106.456 234.506,106.843C234.211,107.231 233.805,107.563 233.285,107.844C232.764,108.124 232.103,108.34 231.303,108.486C230.502,108.633 229.501,108.706 228.301,108.706L221.214,108.706C218.33,108.706 216.181,108.005 214.767,106.603C213.351,105.2 212.644,103.176 212.644,100.533L212.644,97.127C212.644,95.285 212.946,93.815 213.545,92.72C214.146,91.624 214.901,90.789 215.808,90.216C216.715,89.642 217.709,89.273 218.791,89.114C219.871,88.954 220.893,88.874 221.854,88.874L229.18,88.874C229.822,88.874 230.463,88.928 231.103,89.034C231.743,89.141 232.344,89.334 232.905,89.614C233.465,89.894 233.965,90.296 234.405,90.817C234.847,91.337 235.2,92.012 235.468,92.841L235.547,92.841L235.547,89.193L238.75,89.193L238.75,109.587Z" style="fill:rgb(0,84,166);fill-rule:nonzero;"/>
        </g>
        <g transform="matrix(4.16667,0,0,4.16667,0,0)">
            <path d="M266.376,91.999L261.893,91.999L261.893,89.193L266.376,89.193L266.376,84.347L269.821,84.347L269.821,89.193L283.473,89.193L283.473,91.999L269.821,91.999L269.821,102.175C269.821,103.137 269.907,103.931 270.079,104.559C270.254,105.186 270.541,105.695 270.942,106.081C271.342,106.47 271.868,106.744 272.523,106.903C273.177,107.063 273.97,107.143 274.905,107.143L275.986,107.143C277.134,107.143 278.055,107.07 278.748,106.923C279.443,106.776 279.977,106.509 280.35,106.122C280.723,105.734 280.971,105.2 281.091,104.519C281.212,103.838 281.271,102.963 281.271,101.895L281.271,100.372L284.075,100.372L284.075,102.616C284.075,103.631 284.014,104.586 283.894,105.48C283.773,106.377 283.453,107.158 282.932,107.824C282.412,108.493 281.632,109.013 280.591,109.388C279.55,109.761 278.094,109.949 276.226,109.949L274.345,109.949C272.743,109.949 271.422,109.767 270.381,109.408C269.34,109.047 268.525,108.566 267.939,107.965C267.351,107.363 266.944,106.677 266.717,105.901C266.491,105.126 266.376,104.326 266.376,103.497L266.376,91.999Z" style="fill:rgb(0,84,166);fill-rule:nonzero;"/>
        </g>
        <g transform="matrix(4.16667,0,0,4.16667,0,0)">
            <path d="M288.278,80.619L291.72,80.619L291.72,92.72L291.8,92.72C292.121,91.918 292.529,91.27 293.022,90.777C293.516,90.283 294.102,89.894 294.784,89.614C295.464,89.334 296.244,89.141 297.126,89.034C298.007,88.928 298.982,88.874 300.049,88.874L304.974,88.874C306.576,88.874 307.922,89.06 309.017,89.435C310.113,89.808 310.986,90.315 311.64,90.957C312.293,91.598 312.761,92.338 313.041,93.181C313.322,94.022 313.462,94.896 313.462,95.805L313.462,109.627L310.018,109.627L310.018,96.646C310.018,95.899 309.938,95.218 309.779,94.603C309.618,93.988 309.278,93.468 308.757,93.041C308.237,92.614 307.483,92.28 306.495,92.038C305.506,91.799 304.172,91.678 302.491,91.678L301.61,91.678C299.609,91.678 297.966,91.786 296.686,91.999C295.404,92.213 294.397,92.56 293.662,93.041C292.927,93.52 292.421,94.169 292.141,94.983C291.861,95.798 291.72,96.807 291.72,98.009L291.72,109.627L288.278,109.627L288.278,80.619Z" style="fill:rgb(0,84,166);fill-rule:nonzero;"/>
        </g>
        <g transform="matrix(4.16667,0,0,4.16667,0,0)">
            <path d="M341.729,95.845C341.729,95.338 341.615,94.829 341.388,94.323C341.161,93.815 340.781,93.367 340.247,92.981C339.713,92.593 338.978,92.28 338.044,92.038C337.11,91.799 335.95,91.678 334.562,91.678L329.516,91.678C328.156,91.678 327.035,91.751 326.154,91.898C325.272,92.045 324.572,92.319 324.052,92.72C323.531,93.121 323.158,93.681 322.931,94.402C322.702,95.123 322.549,96.059 322.47,97.206L341.729,97.206L341.729,95.845ZM319.026,97.127C319.026,95.285 319.321,93.815 319.907,92.72C320.493,91.624 321.261,90.789 322.209,90.216C323.158,89.642 324.224,89.273 325.412,89.114C326.6,88.954 327.809,88.874 329.035,88.874L334.562,88.874C336.11,88.874 337.53,88.993 338.826,89.234C340.12,89.474 341.235,89.922 342.168,90.576C343.104,91.231 343.836,92.133 344.37,93.281C344.906,94.43 345.172,95.912 345.172,97.728L345.172,100.012L322.47,100.012L322.47,101.293C322.47,102.469 322.617,103.431 322.91,104.179C323.202,104.927 323.677,105.521 324.331,105.961C324.985,106.403 325.839,106.709 326.895,106.884C327.949,107.057 329.223,107.143 330.718,107.143L335.443,107.143C336.51,107.143 337.431,107.097 338.204,107.003C338.978,106.91 339.62,106.729 340.127,106.461C340.633,106.196 341.013,105.821 341.267,105.34C341.522,104.859 341.674,104.233 341.729,103.457L345.172,103.457L345.172,103.858C345.172,105.033 344.938,106.008 344.47,106.783C344.004,107.557 343.324,108.178 342.429,108.646C341.535,109.114 340.452,109.447 339.185,109.647C337.917,109.848 336.484,109.949 334.882,109.949L328.636,109.949C327.515,109.949 326.38,109.867 325.233,109.707C324.084,109.548 323.05,109.174 322.129,108.586C321.208,107.999 320.461,107.158 319.887,106.062C319.312,104.966 319.026,103.472 319.026,101.574L319.026,97.127Z" style="fill:rgb(0,84,166);fill-rule:nonzero;"/>
        </g>
        <g transform="matrix(4.16667,0,0,4.16667,0,0)">
            <path d="M372.198,91.999L367.753,91.999L367.753,89.193L372.198,89.193L372.198,87.39C372.198,86.189 372.37,85.154 372.719,84.286C373.064,83.417 373.538,82.716 374.14,82.181C374.741,81.648 375.454,81.254 376.282,80.999C377.108,80.747 377.99,80.619 378.924,80.619L385.371,80.619L385.371,83.424L379.204,83.424C377.922,83.424 377.008,83.738 376.461,84.366C375.913,84.994 375.642,85.762 375.642,86.67L375.642,89.193L385.371,89.193L385.371,91.999L375.642,91.999L375.642,109.627L372.198,109.627L372.198,91.999Z" style="fill:rgb(0,84,166);fill-rule:nonzero;"/>
        </g>
        <g transform="matrix(4.16667,0,0,4.16667,0,0)">
            <path d="M411.635,106.101L411.556,106.101C411.235,106.903 410.827,107.551 410.333,108.044C409.84,108.54 409.253,108.927 408.573,109.207C407.892,109.487 407.112,109.681 406.23,109.787C405.348,109.895 404.374,109.949 403.307,109.949L398.143,109.949C396.541,109.949 395.192,109.761 394.099,109.388C393.004,109.013 392.129,108.506 391.476,107.865C390.821,107.223 390.355,106.489 390.075,105.661C389.794,104.833 389.655,103.953 389.655,103.016L389.655,89.193L393.097,89.193L393.097,102.175C393.097,102.924 393.177,103.605 393.338,104.218C393.497,104.833 393.838,105.354 394.358,105.782C394.879,106.209 395.633,106.543 396.62,106.783C397.608,107.024 398.943,107.143 400.623,107.143L401.505,107.143C403.507,107.143 405.15,107.037 406.43,106.823C407.71,106.61 408.719,106.263 409.452,105.782C410.187,105.301 410.694,104.653 410.974,103.838C411.254,103.023 411.394,102.016 411.394,100.813L411.394,89.193L414.838,89.193L414.838,109.627L411.635,109.627L411.635,106.101Z" style="fill:rgb(0,84,166);fill-rule:nonzero;"/>
        </g>
        <g transform="matrix(4.16667,0,0,4.16667,0,0)">
            <path d="M423.165,91.999L418.682,91.999L418.682,89.193L423.165,89.193L423.165,84.347L426.61,84.347L426.61,89.193L440.262,89.193L440.262,91.999L426.61,91.999L426.61,102.175C426.61,103.137 426.696,103.931 426.868,104.559C427.042,105.186 427.329,105.695 427.73,106.081C428.131,106.47 428.658,106.744 429.312,106.903C429.965,107.063 430.759,107.143 431.694,107.143L432.775,107.143C433.923,107.143 434.843,107.07 435.537,106.923C436.232,106.776 436.766,106.509 437.139,106.122C437.512,105.734 437.759,105.2 437.88,104.519C438,103.838 438.059,102.963 438.059,101.895L438.059,100.372L440.864,100.372L440.864,102.616C440.864,103.631 440.803,104.586 440.682,105.48C440.562,106.377 440.243,107.158 439.721,107.824C439.202,108.493 438.421,109.013 437.38,109.388C436.339,109.761 434.882,109.949 433.015,109.949L431.134,109.949C429.533,109.949 428.211,109.767 427.17,109.408C426.129,109.047 425.314,108.566 424.728,107.965C424.14,107.363 423.732,106.677 423.506,105.901C423.28,105.126 423.165,104.326 423.165,103.497L423.165,91.999Z" style="fill:rgb(0,84,166);fill-rule:nonzero;"/>
        </g>
        <g transform="matrix(4.16667,0,0,4.16667,0,0)">
            <path d="M467.047,106.101L466.968,106.101C466.647,106.903 466.24,107.551 465.745,108.044C465.252,108.54 464.665,108.927 463.985,109.207C463.304,109.487 462.524,109.681 461.642,109.787C460.76,109.895 459.786,109.949 458.719,109.949L453.555,109.949C451.953,109.949 450.604,109.761 449.511,109.388C448.416,109.013 447.541,108.506 446.888,107.865C446.233,107.223 445.767,106.489 445.487,105.661C445.206,104.833 445.067,103.953 445.067,103.016L445.067,89.193L448.509,89.193L448.509,102.175C448.509,102.924 448.589,103.605 448.75,104.218C448.91,104.833 449.25,105.354 449.77,105.782C450.291,106.209 451.045,106.543 452.033,106.783C453.02,107.024 454.355,107.143 456.035,107.143L456.917,107.143C458.919,107.143 460.562,107.037 461.842,106.823C463.122,106.61 464.131,106.263 464.865,105.782C465.599,105.301 466.106,104.653 466.386,103.838C466.666,103.023 466.807,102.016 466.807,100.813L466.807,89.193L470.25,89.193L470.25,109.627L467.047,109.627L467.047,106.101Z" style="fill:rgb(0,84,166);fill-rule:nonzero;"/>
        </g>
        <g transform="matrix(4.16667,0,0,4.16667,0,0)">
            <path d="M477.017,89.193L480.22,89.193L480.22,92.159L480.299,92.159C480.62,91.492 481.013,90.944 481.481,90.515C481.947,90.089 482.461,89.754 483.022,89.515C483.582,89.273 484.164,89.107 484.763,89.014C485.365,88.92 485.957,88.874 486.546,88.874L489.787,88.874C491.389,88.874 492.739,89.008 493.833,89.273C494.926,89.541 495.808,89.961 496.476,90.537C497.142,91.111 497.622,91.845 497.916,92.74C498.209,93.635 498.358,94.71 498.358,95.966L498.358,98.41L495.155,98.41L495.155,97.528C495.155,96.272 495.067,95.258 494.894,94.482C494.719,93.708 494.379,93.115 493.872,92.7C493.366,92.286 492.637,92.012 491.691,91.879C490.743,91.745 489.508,91.678 487.988,91.678L485.865,91.678C484.957,91.678 484.164,91.812 483.483,92.079C482.802,92.347 482.242,92.707 481.801,93.16C481.36,93.615 481.026,94.141 480.799,94.743C480.574,95.345 480.459,95.979 480.459,96.646L480.459,109.627L477.017,109.627L477.017,89.193Z" style="fill:rgb(0,84,166);fill-rule:nonzero;"/>
        </g>
        <g transform="matrix(4.16667,0,0,4.16667,0,0)">
            <path d="M524.223,95.845C524.223,95.338 524.109,94.829 523.882,94.323C523.656,93.815 523.275,93.367 522.742,92.981C522.206,92.593 521.472,92.28 520.539,92.038C519.604,91.799 518.443,91.678 517.056,91.678L512.01,91.678C510.65,91.678 509.529,91.751 508.648,91.898C507.766,92.045 507.066,92.319 506.546,92.72C506.025,93.121 505.652,93.681 505.425,94.402C505.197,95.123 505.043,96.059 504.964,97.206L524.223,97.206L524.223,95.845ZM501.52,97.127C501.52,95.285 501.815,93.815 502.401,92.72C502.988,91.624 503.755,90.789 504.703,90.216C505.652,89.642 506.718,89.273 507.907,89.114C509.094,88.954 510.303,88.874 511.53,88.874L517.056,88.874C518.604,88.874 520.024,88.993 521.32,89.234C522.615,89.474 523.729,89.922 524.662,90.576C525.598,91.231 526.33,92.133 526.866,93.281C527.4,94.43 527.666,95.912 527.666,97.728L527.666,100.012L504.964,100.012L504.964,101.293C504.964,102.469 505.111,103.431 505.404,104.179C505.697,104.927 506.171,105.521 506.827,105.961C507.479,106.403 508.333,106.709 509.389,106.884C510.443,107.057 511.717,107.143 513.211,107.143L517.937,107.143C519.004,107.143 519.925,107.097 520.698,107.003C521.472,106.91 522.115,106.729 522.62,106.461C523.127,106.196 523.507,105.821 523.761,105.34C524.016,104.859 524.169,104.233 524.223,103.457L527.666,103.457L527.666,103.858C527.666,105.033 527.432,106.008 526.964,106.783C526.498,107.557 525.818,108.178 524.923,108.646C524.029,109.114 522.947,109.447 521.679,109.647C520.411,109.848 518.978,109.949 517.375,109.949L511.13,109.949C510.009,109.949 508.874,109.867 507.727,109.707C506.578,109.548 505.544,109.174 504.623,108.586C503.702,107.999 502.955,107.158 502.381,106.062C501.806,104.966 501.52,103.472 501.52,101.574L501.52,97.127Z" style="fill:rgb(0,84,166);fill-rule:nonzero;"/>
        </g>
    </g>
</svg>