<svg xmlns="http://www.w3.org/2000/svg" width="231.188" height="51.333" viewBox="0 0 231.188 51.333"><g transform="translate(-6.011 -8.493)"><g transform="translate(68.106 9.695)"><g transform="translate(0 0)"><path d="M175.773,41.069l-2.163-2.558a14.045,14.045,0,0,1-7.46,1.766c-8.722,0-15.028-6.2-15.028-14.992,0-8.217,7.207-13.983,15.028-13.983,8.469,0,15.028,5.73,15.028,14.56a14.788,14.788,0,0,1-3.5,9.551l4.577,4.649ZM172.565,29.9a7.015,7.015,0,0,0,1.261-4,7.808,7.808,0,0,0-7.64-7.749c-4.217,0-7.713,3.424-7.713,7.172a7.816,7.816,0,0,0,7.713,8.109,6.479,6.479,0,0,0,2.162-.361l-4.36-4.324,6.667-.829Z" transform="translate(-151.122 -11.301)" fill="#0058a7"/><path d="M233.31,33.7v9.874c0,2.343.577,4,3.28,4s3.28-1.658,3.28-4V33.7h6.559V44.84c0,6.091-4.289,7.965-9.839,7.965s-9.839-1.874-9.839-7.965V33.7Z" transform="translate(-194.389 -24.118)" fill="#0058a7"/><path d="M299.255,51.373H292.7V49.318h-.072a6.492,6.492,0,0,1-5.586,2.667c-5.478,0-9.334-4.577-9.334-9.874s3.784-9.839,9.262-9.839a7.541,7.541,0,0,1,5.73,2.415v-1.8h6.559Zm-14.776-9.226a4.217,4.217,0,0,0,8.433,0,4.217,4.217,0,0,0-8.433,0Z" transform="translate(-223.538 -23.298)" fill="#0058a7"/><path d="M343.132,35.263h.072a6.4,6.4,0,0,1,5.911-2.991c4.973,0,6.956,3.135,6.956,7.676V51.373h-6.559v-9.01c0-1.766.288-4.865-2.955-4.865-2.667,0-3.424,1.982-3.424,4.289v9.587h-6.559V32.885h6.559Z" transform="translate(-257.216 -23.298)" fill="#0058a7"/><path d="M395.706,44.772h-6.559V31.69H387.02V26.284h2.127v-5.55h6.559v5.55h3.712V31.69h-3.712Z" transform="translate(-286.077 -16.698)" fill="#0058a7"/><path d="M425.5,33.7v9.874c0,2.343.576,4,3.28,4s3.28-1.658,3.28-4V33.7h6.559V44.84c0,6.091-4.289,7.965-9.839,7.965s-9.839-1.874-9.839-7.965V33.7Z" transform="translate(-304.338 -24.118)" fill="#0058a7"/><path d="M479.568,35.191h.072a6.843,6.843,0,0,1,5.838-2.919,6.767,6.767,0,0,1,6.307,3.532,7.06,7.06,0,0,1,6.271-3.532c4.685,0,6.307,3.063,6.307,7.316V51.373H497.8v-8.83c0-1.91.072-5.046-2.7-5.046-3.027,0-3.135,2.847-3.135,5.046v8.83h-6.559v-8.83c0-2.054,0-5.19-2.919-5.19s-2.919,3.136-2.919,5.19v8.83h-6.559V32.885h6.559Z" transform="translate(-335.27 -23.298)" fill="#0058a7"/></g></g><g transform="translate(68.137 45.546)"><path d="M151.2,95.715h3.079c4.559,0,8.349,2.066,8.349,6.316,0,4.352-3.711,6.451-8.408,6.451H151.2Zm1.855,11.311h.651c3.79,0,7.066-1.219,7.066-4.927,0-3.725-3.277-4.927-7.066-4.927h-.651Z" transform="translate(-151.196 -95.445)" fill="#161615"/><path d="M202.256,95.715h7.994v1.457h-6.139v3.573h5.961V102.2h-5.961v4.826h6.139v1.456h-7.994Z" transform="translate(-180.407 -95.445)" fill="#161615"/><path d="M248.465,108.482H246.61V97.172h-3.533V95.715H252v1.457h-3.533Z" transform="translate(-203.76 -95.445)" fill="#161615"/><path d="M287.357,95.715h7.994v1.457h-6.138v3.573h5.961V102.2h-5.961v4.826h6.138v1.456h-7.994Z" transform="translate(-229.092 -95.445)" fill="#161615"/><path d="M341.134,97.792a6.625,6.625,0,0,0-3.927-1.253c-3.336,0-5.882,2.387-5.882,5.215,0,2.794,2.526,5.182,5.842,5.182a6.537,6.537,0,0,0,3.967-1.321v1.879a9.1,9.1,0,0,1-3.908.9c-4.244,0-7.757-2.9-7.757-6.587,0-3.776,3.533-6.722,7.915-6.722a8.107,8.107,0,0,1,3.75.863Z" transform="translate(-253.185 -95.083)" fill="#161615"/><path d="M384.073,108.482h-1.855V97.172h-3.533V95.715h8.922v1.457h-3.533Z" transform="translate(-281.34 -95.445)" fill="#161615"/><path d="M436.113,101.737c0,3.793-3.493,6.654-7.8,6.654s-7.8-2.861-7.8-6.654c0-3.657,3.533-6.654,7.8-6.654S436.113,98.08,436.113,101.737Zm-1.855,0c0-2.811-2.448-5.164-5.941-5.164s-5.941,2.354-5.941,5.164c0,2.912,2.724,5.165,5.941,5.165S434.257,104.649,434.257,101.737Z" transform="translate(-305.273 -95.083)" fill="#161615"/><path d="M490.432,108.482h-2.25l-4.381-5.4h-.77v5.4h-1.855V95.715h2.25a9.026,9.026,0,0,1,3.927.593,3.45,3.45,0,0,1,1.954,3.048,3.691,3.691,0,0,1-3.573,3.573Zm-7.4-6.722h.592c1.894,0,3.947-.305,3.947-2.337,0-2-2.211-2.285-4.046-2.285h-.493Z" transform="translate(-339.973 -95.445)" fill="#161615"/><path d="M531.8,97.775a2.638,2.638,0,0,0-2.389-1.2c-1.184,0-2.487.694-2.487,1.811,0,1,1.145,1.524,2.073,1.829l1.065.356c2.112.711,3.691,1.71,3.691,3.844,0,2.32-2.093,3.979-4.757,3.979a4.432,4.432,0,0,1-4.6-3.573l1.875-.339a2.839,2.839,0,0,0,5.625-.068c0-1.371-1.283-1.964-2.566-2.421l-1.027-.372c-1.7-.627-3.237-1.456-3.237-3.235,0-2.066,2.131-3.3,4.382-3.3a4.4,4.4,0,0,1,3.829,1.93Z" transform="translate(-364.698 -95.083)" fill="#161615"/></g><g transform="translate(15.76 8.494)"><path d="M65.828,58.18a2.014,2.014,0,0,1-1.738.788c-4.266,0-12.83-7.481-20.824-18.194C33.544,27.755,27.594,13.727,30.272,10.142a2.015,2.015,0,0,1,1.739-.788c4.264,0,12.828,7.48,20.827,18.191C62.556,40.565,68.505,54.594,65.828,58.18Zm-12.3-31.149C45.245,15.944,36.6,8.5,32.011,8.5a2.858,2.858,0,0,0-2.426,1.133c-2.985,4,2.722,17.9,12.994,31.658C50.853,52.377,59.5,59.828,64.09,59.826a2.855,2.855,0,0,0,2.426-1.133C69.5,54.695,63.794,40.787,53.524,27.032Z" transform="translate(-28.793 -8.496)" fill="#0090df"/></g><g transform="translate(15.762 8.493)"><path d="M30.277,58.18C27.6,54.595,33.548,40.567,43.268,27.545c8-10.714,16.559-18.2,20.825-18.194a2.014,2.014,0,0,1,1.737.788c2.678,3.585-3.271,17.615-12.991,30.637-8,10.712-16.561,18.194-20.825,18.192A2.017,2.017,0,0,1,30.277,58.18ZM53.527,41.289C63.8,27.53,69.5,13.622,66.518,9.626a2.854,2.854,0,0,0-2.425-1.133c-4.59,0-13.236,7.449-21.513,18.539C32.31,40.789,26.6,54.7,29.59,58.693a2.852,2.852,0,0,0,2.425,1.133C36.6,59.827,45.249,52.378,53.527,41.289Z" transform="translate(-28.798 -8.493)" fill="#0090df"/></g><g transform="translate(6.011 26.023)"><path d="M6.952,57.4c1.238-4.011,15.179-7.249,30.44-7.071,12.559.145,22.974,2.5,25.329,5.74a1.869,1.869,0,0,1,.359,1.733c-1.238,4.011-15.178,7.248-30.44,7.068-12.557-.143-22.972-2.5-25.329-5.737A1.871,1.871,0,0,1,6.952,57.4Zm25.679,8.328c16.148.19,29.884-3.181,31.27-7.673a2.7,2.7,0,0,0-.485-2.492c-2.544-3.494-13-5.942-26.013-6.092-16.148-.189-29.883,3.183-31.27,7.676a2.706,2.706,0,0,0,.486,2.491C9.164,63.127,19.617,65.575,32.631,65.724Z" transform="translate(-6.011 -49.458)" fill="#0090df"/></g><g transform="translate(31.75 30.831)"><g transform="translate(0 0)"><path d="M72.682,63.957A3.26,3.26,0,1,1,69.421,60.7,3.262,3.262,0,0,1,72.682,63.957Z" transform="translate(-66.162 -60.696)" fill="#0058a7"/></g></g></g></svg>